<?xml version="1.0" encoding="UTF-8"?>
<svg width="24px" height="24px" viewBox="0 0 24 24" version="1.1" xmlns="http://www.w3.org/2000/svg" xmlns:xlink="http://www.w3.org/1999/xlink">
    <title>Icon / Time / icn_timer_line</title>
    <defs>
        <path d="M20,13 C20,8.589 16.411,5 12,5 C7.589,5 4,8.589 4,13 C4,17.411 7.589,21 12,21 C16.411,21 20,17.411 20,13 L20,13 Z M21,13 C21,17.962 16.962,22 12,22 C7.038,22 3,17.962 3,13 C3,8.038 7.038,4 12,4 C14.214,4 16.241,4.808 17.811,6.139 L19.242,4.707 L19.95,5.414 L18.534,6.83 C20.058,8.443 21,10.611 21,13 L21,13 Z M9,3 L15,3 L15,2 L9,2 L9,3 Z M11.5,14 L12.5,14 L12.5,8 L11.5,8 L11.5,14 Z" id="path-1"></path>
    </defs>
    <g id="Icon-/-Time-/-icn_timer_line" stroke="none" stroke-width="1" fill="none" fill-rule="evenodd">
        <g>
            <rect id="Rectangle-1-Copy-147" x="0" y="0" width="24" height="24"></rect>
            <mask id="mask-2" fill="white">
                <use xlink:href="#path-1"></use>
            </mask>
            <use id="Page-1" fill="#2E3134" xlink:href="#path-1"></use>
            <g id="Group" mask="url(#mask-2)" fill="#2E3134">
                <g id="Rectangle-4">
                    <rect x="0" y="0" width="24" height="24"></rect>
                </g>
            </g>
        </g>
    </g>
</svg>